<svg width="20" height="26" viewBox="0 0 20 26" fill="none" xmlns="http://www.w3.org/2000/svg">
<path fill-rule="evenodd" clip-rule="evenodd" d="M0.1875 9.07544C0.1875 4.38101 3.99307 0.575439 8.6875 0.575439C13.3819 0.575439 17.1875 4.38101 17.1875 9.07544C17.1875 10.8959 16.6152 12.5827 15.6407 13.9658L19.0797 17.4024C19.4706 17.793 19.4706 18.4266 19.0798 18.8171L18.4319 19.4645C18.0415 19.8547 17.4087 19.8547 17.0182 19.4645L13.579 16.0278C12.1958 17.0028 10.5085 17.5754 8.6875 17.5754C3.99307 17.5754 0.1875 13.7699 0.1875 9.07544ZM8.68746 15.1469C5.33968 15.1469 2.61604 12.4232 2.61604 9.07544C2.61604 5.72765 5.33968 3.00401 8.68746 3.00401C12.0352 3.00401 14.7589 5.72765 14.7589 9.07544C14.7589 12.4232 12.0352 15.1469 8.68746 15.1469Z" fill="#222222"/>
</svg>
